# xmcd
# 
# Track frame offsets:
#     150
#     15737
#     31739
#     46324
#     57559
#     69580
#     86966
#     99972
#     112856
#     127767
#     144268
#     158986
# 
# Disc length: 2302
# 
# Revision: 2
# Processed by: cddbd v1.5.2PL0 Copyright (c) Steve Scherf et al.
# Submitted via: fre:ac v1.0.31
# 
DISCID=9408fc0c
DTITLE=Steve Earle - So You Wannabe An Outlaw
DYEAR=2017
DGENRE=Rock/Pop
TTITLE0=So You Wannabe An Outlaw
TTITLE1=Lookin’ For A Woman
TTITLE2=The Firebreak Line
TTITLE3=News From Colorado
TTITLE4=If Mama Coulda Seen Me
TTITLE5=Fixin’ To Die
TTITLE6=This Is How It Ends
TTITLE7=The Girl On The Mountain
TTITLE8=You Broke My Heart
TTITLE9=Walkin’ in LA
TTITLE10=Sunset Highway
TTITLE11=Goodbye Michelangelo
EXTD=
EXTT0=
EXTT1=
EXTT2=
EXTT3=
EXTT4=
EXTT5=
EXTT6=
EXTT7=
EXTT8=
EXTT9=
EXTT10=
EXTT11=
PLAYORDER=
